<svg xmlns="http://www.w3.org/2000/svg" width="1600" height="900" viewBox="0 0 1600 900"><rect width="1600" height="900" fill="#071632"/><defs><linearGradient id="g" x1="0" y1="0" x2="1" y2="1"><stop offset="0" stop-color="#0B1F4D"/><stop offset="1" stop-color="#041022"/></linearGradient><linearGradient id="r" x1="0" y1="0" x2="1" y2="0"><stop offset="0" stop-color="#F45B69"/><stop offset="1" stop-color="#A52A3A"/></linearGradient></defs><rect width="1600" height="900" fill="url(#g)"/><g opacity=".12" stroke="#8BA3D1"><path d="M0 180H1600M0 360H1600M0 540H1600M0 720H1600"/><path d="M300 0V900M600 0V900M900 0V900M1200 0V900"/></g><text x="100" y="130" font-family="Arial,sans-serif" font-size="30" fill="#8EA7D8" font-weight="700">JOYLAB RESEARCH · U.S. TREASURY</text><text x="100" y="225" font-family="Arial,sans-serif" font-size="62" fill="white" font-weight="800">중국 보유 감소보다 더 큰 질문</text><text x="100" y="295" font-family="Arial,sans-serif" font-size="36" fill="#C8D4EF">누가 미국 국채를 사는가?</text><path d="M130 540 C280 505 390 500 520 535 S760 620 900 655" fill="none" stroke="url(#r)" stroke-width="12"/><circle cx="900" cy="655" r="14" fill="#F45B69"/><text x="765" y="715" font-family="Arial,sans-serif" font-size="36" fill="#F9A3AA" font-weight="700">China 633.4B</text><path d="M965 685 C1090 630 1200 565 1305 470 S1435 330 1490 250" fill="none" stroke="#1677FF" stroke-width="12"/><circle cx="1490" cy="250" r="15" fill="#71AFFF"/><text x="1290" y="205" font-family="Arial,sans-serif" font-size="58" fill="white" font-weight="800">5%</text><text x="1265" y="248" font-family="Arial,sans-serif" font-size="24" fill="#92BDF8">10Y YIELD LINE</text><rect x="1010" y="405" width="360" height="150" rx="22" fill="#0D2C61" stroke="#295AA5"/><text x="1050" y="458" font-family="Arial,sans-serif" font-size="22" fill="#8EA7D8">TREASURY BUYER REGIME</text><text x="1050" y="505" font-family="Arial,sans-serif" font-size="32" fill="white" font-weight="700">Official → Private</text><text x="1050" y="540" font-family="Arial,sans-serif" font-size="22" fill="#B9C8E6">수요 구조가 가격을 바꾼다</text><text x="100" y="825" font-family="Arial,sans-serif" font-size="24" fill="#8096C2">Fact → Interpretation → Transmission → Scenario → Action</text></svg>