<svg xmlns="http://www.w3.org/2000/svg" viewBox="0 0 1024 1536" role="img" aria-labelledby="t d"><title id="t">콜센터 AI 생존기 표지 V2</title><desc id="d">JoyLab Books AI Productivity 실무서 표지</desc><defs><linearGradient id="bg" x1="0" y1="0" x2="1" y2="1"><stop offset="0" stop-color="#06152f"/><stop offset=".58" stop-color="#082b61"/><stop offset="1" stop-color="#0d68d8"/></linearGradient><linearGradient id="ai" x1="0" y1="0" x2="0" y2="1"><stop stop-color="#47e4ff"/><stop offset="1" stop-color="#1677ff"/></linearGradient><radialGradient id="glow"><stop stop-color="#53a7ff" stop-opacity=".45"/><stop offset="1" stop-color="#53a7ff" stop-opacity="0"/></radialGradient></defs><rect width="1024" height="1536" fill="url(#bg)"/><circle cx="825" cy="615" r="430" fill="url(#glow)"/><g fill="none" stroke="#60b8ff" stroke-opacity=".45"><circle cx="810" cy="610" r="255"/><circle cx="810" cy="610" r="330" stroke-dasharray="3 9"/></g><circle cx="670" cy="430" r="7" fill="#48d6ff"/><circle cx="720" cy="655" r="6" fill="#f3b95e"/><path d="M745 510c0-120 96-216 216-216s216 96 216 216v205" transform="translate(-210 120)" fill="none" stroke="#b9e6ff" stroke-width="28" stroke-linecap="round" opacity=".9"/><rect x="725" y="680" width="72" height="175" rx="36" fill="#0b3368" stroke="#b9e6ff" stroke-width="18"/><path d="M786 840c0 76-40 118-108 130" fill="none" stroke="#57b7ff" stroke-width="20" stroke-linecap="round"/><circle cx="664" cy="974" r="18" fill="#b9e6ff"/><text x="70" y="95" fill="#dceeff" font-family="Arial,Noto Sans KR,sans-serif" font-size="26" font-weight="700" letter-spacing="6">JOYLAB BOOKS · AI PRODUCTIVITY</text><line x1="70" y1="125" x2="235" y2="125" stroke="#69b6ff"/><text x="70" y="355" fill="#fff" font-family="Arial,Noto Sans KR,sans-serif" font-size="112" font-weight="900">콜센터</text><text x="70" y="540" fill="url(#ai)" font-family="Arial,Noto Sans KR,sans-serif" font-size="190" font-weight="900">AI</text><text x="70" y="700" fill="#fff" font-family="Arial,Noto Sans KR,sans-serif" font-size="112" font-weight="900">생존기</text><text x="70" y="790" fill="#edf6ff" font-family="Arial,Noto Sans KR,sans-serif" font-size="34" font-weight="600"><tspan x="70">제미나이로 검색·요약·고객응대·</tspan><tspan x="70" dy="52">민원처리까지 끝내는 실전 프롬프트</tspan></text><line x1="70" y1="920" x2="125" y2="920" stroke="#f3b95e" stroke-width="5"/><text x="70" y="1000" fill="#fff" font-family="Arial,Noto Sans KR,sans-serif" font-size="34">오법석 지음</text><g transform="translate(70 1135)"><rect width="884" height="148" rx="28" fill="#082550" fill-opacity=".72" stroke="#47a8ff" stroke-opacity=".6"/><g fill="#dcedff" font-family="Arial,Noto Sans KR,sans-serif" font-size="23" font-weight="700" text-anchor="middle"><text x="90" y="93">검색</text><text x="270" y="93">ACW 요약</text><text x="450" y="93">E-V-A 응대</text><text x="640" y="93">복합민원</text><text x="810" y="93">AI 보안</text></g><g fill="none" stroke="#57bcff" stroke-width="5"><circle cx="90" cy="45" r="18"/><line x1="103" y1="58" x2="118" y2="73"/><rect x="250" y="25" width="40" height="48" rx="5"/><line x1="260" y1="39" x2="280" y2="39"/><line x1="260" y1="50" x2="280" y2="50"/><path d="M425 58c0-18 14-31 32-31h5c18 0 32 13 32 31s-14 31-32 31h-5l-18 13 4-19c-11-5-18-14-18-25z"/><circle cx="447" cy="57" r="3" fill="#57bcff"/><circle cx="458" cy="57" r="3" fill="#57bcff"/><circle cx="469" cy="57" r="3" fill="#57bcff"/><path d="M610 65c0-18 14-32 32-32s32 14 32 32"/><circle cx="627" cy="43" r="12" stroke="#f3b95e"/><circle cx="657" cy="43" r="12" stroke="#f3b95e"/><path d="M786 32l24-10 24 10v24c0 17-10 31-24 39-14-8-24-22-24-39z"/><rect x="800" y="45" width="20" height="18" rx="3"/></g></g><text x="70" y="1445" fill="#dceeff" font-family="Arial,sans-serif" font-size="24" letter-spacing="2">JoyLab Books</text><text x="954" y="1445" text-anchor="end" fill="#9ccfff" font-family="Arial,sans-serif" font-size="18" letter-spacing="3">THINK · ANALYZE · EXECUTE</text></svg>